<mxfile host="app.diagrams.net" modified="2020-10-18T07:34:38.577Z" agent="5.0 (Windows NT 10.0; Win64; x64) AppleWebKit/537.36 (KHTML, like Gecko) Chrome/86.0.4240.75 Safari/537.36" etag="C9E8c_t2CJcXL-OYBLiI" version="13.8.0" type="github">
  <diagram id="xslven1wKEGECaXT9Net" name="Page-1">
    <mxGraphModel dx="1422" dy="762" grid="1" gridSize="10" guides="1" tooltips="1" connect="1" arrows="1" fold="1" page="1" pageScale="1" pageWidth="850" pageHeight="1100" math="0" shadow="0">
      <root>
        <mxCell id="0" />
        <mxCell id="1" parent="0" />
        <mxCell id="keDLqtdEza3z_p-qkBi5-3" value="" style="group" vertex="1" connectable="0" parent="1">
          <mxGeometry x="180" y="100" width="370" height="500" as="geometry" />
        </mxCell>
        <mxCell id="keDLqtdEza3z_p-qkBi5-1" value="" style="rounded=1;whiteSpace=wrap;html=1;" vertex="1" parent="keDLqtdEza3z_p-qkBi5-3">
          <mxGeometry width="370" height="250" as="geometry" />
        </mxCell>
        <mxCell id="keDLqtdEza3z_p-qkBi5-2" value="RestHandlerException" style="text;html=1;strokeColor=none;fillColor=none;align=center;verticalAlign=middle;whiteSpace=wrap;rounded=0;" vertex="1" parent="keDLqtdEza3z_p-qkBi5-3">
          <mxGeometry x="130" width="120" height="30" as="geometry" />
        </mxCell>
        <mxCell id="keDLqtdEza3z_p-qkBi5-9" value="" style="group" vertex="1" connectable="0" parent="keDLqtdEza3z_p-qkBi5-3">
          <mxGeometry x="30" y="50" width="310" height="400" as="geometry" />
        </mxCell>
        <mxCell id="keDLqtdEza3z_p-qkBi5-4" value="" style="rounded=0;whiteSpace=wrap;html=1;fillColor=#dae8fc;strokeColor=#6c8ebf;" vertex="1" parent="keDLqtdEza3z_p-qkBi5-9">
          <mxGeometry width="310" height="180" as="geometry" />
        </mxCell>
        <mxCell id="keDLqtdEza3z_p-qkBi5-8" value="LoggerIntercepter" style="text;html=1;strokeColor=none;fillColor=none;align=center;verticalAlign=middle;whiteSpace=wrap;rounded=0;" vertex="1" parent="keDLqtdEza3z_p-qkBi5-9">
          <mxGeometry x="135" y="10" width="40" height="20" as="geometry" />
        </mxCell>
        <mxCell id="keDLqtdEza3z_p-qkBi5-10" value="Controller" style="rounded=0;whiteSpace=wrap;html=1;fillColor=#d5e8d4;strokeColor=#82b366;" vertex="1" parent="keDLqtdEza3z_p-qkBi5-9">
          <mxGeometry x="95" y="70" width="120" height="20" as="geometry" />
        </mxCell>
        <mxCell id="keDLqtdEza3z_p-qkBi5-14" style="edgeStyle=orthogonalEdgeStyle;rounded=0;orthogonalLoop=1;jettySize=auto;html=1;exitX=0.5;exitY=1;exitDx=0;exitDy=0;" edge="1" parent="keDLqtdEza3z_p-qkBi5-9" source="keDLqtdEza3z_p-qkBi5-10" target="keDLqtdEza3z_p-qkBi5-10">
          <mxGeometry relative="1" as="geometry" />
        </mxCell>
        <mxCell id="keDLqtdEza3z_p-qkBi5-27" value="Service" style="rounded=0;whiteSpace=wrap;html=1;fillColor=#d5e8d4;strokeColor=#82b366;" vertex="1" parent="keDLqtdEza3z_p-qkBi5-9">
          <mxGeometry x="95" y="110" width="120" height="20" as="geometry" />
        </mxCell>
      </root>
    </mxGraphModel>
  </diagram>
</mxfile>
